# xmcd
#
# Track frame offsets: 
#        150
#        12849
#        26278
#        44319
#        57941
#        80129
#        96715
#        114888
#        127114
#        144313
#
# Disc length: 2069 seconds
#
# Revision: 0
# Processed by: cddbd v1.5.2PL0 Copyright (c) Steve Scherf et al.
# Submitted via: ExactAudioCopy v0.99pb4
#
DISCID=8208130a
DTITLE=Curtis Lyn Cook - Don't Break My Heart
DYEAR=2003
DGENRE=Country
TTITLE0=Someone Had to Teach You
TTITLE1=Mama Tried
TTITLE2=Just This Rose
TTITLE3=Satin Sheets
TTITLE4=The Blues Man
TTITLE5=Don't Break My Heart
TTITLE6=Lonesome Fugitive
TTITLE7=Unwound
TTITLE8=Sleazy Motel
TTITLE9=Faded Love
EXTD=
EXTT0=
EXTT1=
EXTT2=
EXTT3=
EXTT4=
EXTT5=
EXTT6=
EXTT7=
EXTT8=
EXTT9=
PLAYORDER=
